<?xml version="1.0" encoding="utf-8"?> <!-- Generated by Layerhero SVG Exporter: http://www.layerhero.com/photoshop-svg-exporter --><!DOCTYPE svg PUBLIC "-//W3C//DTD SVG 1.1//EN" "http://www.w3.org/Graphics/SVG/1.1/DTD/svg11.dtd"><svg version="1.1" baseProfile="full" xmlns="http://www.w3.org/2000/svg" xmlns:xlink="http://www.w3.org/1999/xlink" xmlns:ev="http://www.w3.org/2001/xml-events" width="29" height="40" viewBox="0 0 29 40"><g transform="scale(NaN)" ><path fill-rule="evenodd"  fill="rgb( 71, 42, 147 )" d="M27.454,24.927 C26.715,24.201 25.516,24.201 24.777,24.927 C24.777,24.927 15.892,33.654 15.892,33.654 C15.892,33.654 15.892,1.871 15.892,1.871 C15.892,0.845 15.045,0.012 13.999,0.012 C12.954,0.012 12.106,0.845 12.106,1.871 C12.106,1.871 12.106,33.654 12.106,33.654 C12.106,33.654 3.222,24.928 3.222,24.928 C2.482,24.202 1.283,24.202 0.544,24.928 C-0.195,25.654 -0.195,26.831 0.544,27.557 C0.544,27.557 12.661,39.458 12.661,39.458 C13.030,39.821 13.515,40.002 13.999,40.002 C14.484,40.002 14.968,39.821 15.338,39.458 C15.338,39.458 27.454,27.557 27.454,27.557 C28.194,26.831 28.194,25.654 27.454,24.927 Z"/></g></svg>