<?xml version="1.0" encoding="utf-8"?> <!-- Generated by Layerhero SVG Exporter: http://www.layerhero.com/photoshop-svg-exporter --><!DOCTYPE svg PUBLIC "-//W3C//DTD SVG 1.1//EN" "http://www.w3.org/Graphics/SVG/1.1/DTD/svg11.dtd"><svg version="1.1" baseProfile="full" xmlns="http://www.w3.org/2000/svg" xmlns:xlink="http://www.w3.org/1999/xlink" xmlns:ev="http://www.w3.org/2001/xml-events" width="49" height="51" viewBox="0 0 49 51"><g transform="scale(NaN)" ><path fill-rule="evenodd"  fill="rgb( 71, 42, 147 )" d="M48.214,12.399 C48.214,12.399 39.622,8.888 39.622,8.888 C39.622,8.882 39.622,8.875 39.622,8.869 C39.622,6.861 38.819,3.492 33.441,3.492 C31.701,3.492 29.554,3.969 27.677,4.784 C28.526,3.756 29.530,2.901 30.534,2.365 C31.151,2.035 31.382,1.271 31.049,0.660 C30.716,0.048 29.945,-0.180 29.328,0.150 C27.580,1.083 25.941,2.707 24.800,4.436 C23.695,2.133 21.998,1.242 21.892,1.189 C21.267,0.872 20.502,1.118 20.183,1.737 C19.863,2.355 20.111,3.113 20.736,3.429 C20.751,3.437 21.677,3.951 22.391,5.301 C20.302,4.174 17.640,3.492 15.559,3.492 C10.181,3.492 9.378,6.861 9.378,8.869 C9.378,8.875 9.378,8.882 9.378,8.888 C9.378,8.888 0.786,12.399 0.786,12.399 C0.757,12.411 0.729,12.423 0.702,12.437 C0.701,12.438 0.700,12.438 0.699,12.438 C0.657,12.459 0.359,12.578 0.195,12.850 C0.011,13.155 0.000,13.514 0.000,13.562 C0.000,13.562 0.000,38.550 0.000,38.550 C0.000,39.031 0.278,39.471 0.715,39.681 C0.715,39.681 23.909,50.852 23.909,50.852 C24.094,50.948 24.296,51.000 24.500,51.000 C24.689,51.000 24.879,50.958 25.055,50.873 C25.055,50.873 48.285,39.685 48.285,39.685 C48.722,39.475 49.000,39.035 49.000,38.554 C49.000,38.554 49.000,13.572 49.000,13.572 C49.000,13.568 49.000,13.565 49.000,13.562 C49.000,13.052 48.690,12.593 48.214,12.399 ZM33.666,5.945 C36.866,5.945 37.307,7.320 37.307,8.806 C37.307,10.292 36.866,11.667 33.666,11.667 C31.806,11.667 25.939,10.717 25.939,9.380 C25.939,8.042 30.146,5.945 33.666,5.945 ZM15.426,5.945 C18.946,5.945 23.153,8.042 23.153,9.380 C23.153,10.717 17.286,11.667 15.426,11.667 C12.226,11.667 11.785,10.292 11.785,8.806 C11.785,7.320 12.226,5.945 15.426,5.945 ZM10.666,41.676 C10.666,41.676 2.541,37.763 2.541,37.763 C2.541,37.763 2.541,15.442 2.541,15.442 C2.541,15.442 10.666,18.763 10.666,18.763 C10.666,18.763 10.666,41.676 10.666,41.676 C10.666,41.676 10.666,41.676 10.666,41.676 ZM4.605,13.560 C4.605,13.560 9.892,11.400 9.892,11.400 C10.587,12.898 12.158,14.246 15.559,14.246 C16.708,14.246 18.051,14.136 19.381,13.895 C19.381,13.895 12.651,16.839 12.651,16.839 C12.651,16.839 4.605,13.560 4.605,13.560 ZM23.229,47.726 C23.229,47.726 13.207,42.900 13.207,42.900 C13.207,42.900 13.207,19.801 13.207,19.801 C13.207,19.801 23.229,23.897 23.229,23.897 C23.229,23.897 23.229,47.726 23.229,47.726 ZM24.505,21.670 C24.505,21.670 15.907,18.166 15.907,18.166 C15.907,18.166 24.526,14.395 24.526,14.395 C24.526,14.395 33.105,18.165 33.105,18.165 C33.105,18.165 24.505,21.670 24.505,21.670 ZM35.793,42.903 C35.793,42.903 25.770,47.730 25.770,47.730 C25.770,47.730 25.770,23.897 25.770,23.897 C25.770,23.897 35.793,19.801 35.793,19.801 C35.793,19.801 35.793,42.903 35.793,42.903 ZM29.677,13.905 C30.987,14.139 32.309,14.246 33.441,14.246 C36.842,14.246 38.412,12.898 39.108,11.400 C39.108,11.400 44.399,13.562 44.399,13.562 C44.399,13.562 43.978,13.734 43.978,13.734 C43.978,13.734 36.355,16.840 36.355,16.840 C36.355,16.840 29.677,13.905 29.677,13.905 ZM46.459,37.766 C46.459,37.766 38.334,41.680 38.334,41.680 C38.334,41.680 38.334,18.763 38.334,18.763 C38.334,18.763 45.002,16.038 45.002,16.038 C45.002,16.038 46.459,15.444 46.459,15.444 C46.459,15.444 46.459,37.766 46.459,37.766 C46.459,37.766 46.459,37.766 46.459,37.766 Z"/></g></svg>