<?xml version="1.0" encoding="utf-8"?> <!-- Generated by Layerhero SVG Exporter: http://www.layerhero.com/photoshop-svg-exporter --><!DOCTYPE svg PUBLIC "-//W3C//DTD SVG 1.1//EN" "http://www.w3.org/Graphics/SVG/1.1/DTD/svg11.dtd"><svg version="1.1" baseProfile="full" xmlns="http://www.w3.org/2000/svg" xmlns:xlink="http://www.w3.org/1999/xlink" xmlns:ev="http://www.w3.org/2001/xml-events" width="40" height="39" viewBox="0 0 40 39"><g transform="scale(NaN)" ><path fill-rule="evenodd"  fill="rgb( 71, 42, 147 )" d="M38.269,-0.000 C38.269,-0.000 29.210,0.000 29.210,0.000 C29.203,-0.000 29.196,-0.000 29.189,-0.000 C29.189,-0.000 11.114,-0.000 11.114,-0.000 C10.160,-0.000 9.383,0.785 9.383,1.750 C9.383,1.750 9.383,6.809 9.383,6.809 C9.383,6.809 1.670,6.809 1.670,6.809 C0.748,6.809 -0.000,7.565 -0.000,8.497 C-0.000,8.497 -0.000,37.312 -0.000,37.312 C-0.000,38.244 0.748,39.000 1.670,39.000 C1.670,39.000 30.168,39.000 30.168,39.000 C31.090,39.000 31.838,38.244 31.838,37.312 C31.838,37.312 31.838,18.913 31.838,18.913 C31.838,18.913 38.269,18.913 38.269,18.913 C39.223,18.913 40.000,18.127 40.000,17.162 C40.000,17.162 40.000,1.750 40.000,1.750 C40.000,0.785 39.223,-0.000 38.269,-0.000 ZM3.340,35.623 C3.340,35.623 3.340,10.186 3.340,10.186 C3.340,10.186 9.383,10.186 9.383,10.186 C9.383,10.186 9.383,17.162 9.383,17.162 C9.383,18.127 10.160,18.913 11.114,18.913 C11.114,18.913 18.156,18.913 18.156,18.913 C18.156,18.913 18.156,20.856 18.156,20.856 C18.156,20.856 13.854,24.057 13.854,24.057 C13.854,24.057 12.349,21.989 12.349,21.989 C12.197,21.782 11.948,21.671 11.695,21.700 C11.441,21.728 11.222,21.892 11.120,22.128 C11.120,22.128 7.442,30.622 7.442,30.622 C7.402,30.715 7.382,30.814 7.382,30.912 C7.382,31.063 7.429,31.214 7.521,31.340 C7.672,31.547 7.921,31.658 8.175,31.629 C8.175,31.629 17.290,30.603 17.290,30.603 C17.544,30.575 17.763,30.412 17.865,30.176 C17.967,29.939 17.937,29.666 17.786,29.458 C17.786,29.458 16.281,27.390 16.281,27.390 C16.281,27.390 21.958,23.165 21.958,23.165 C22.141,23.029 22.249,22.813 22.249,22.583 C22.249,22.583 22.249,18.913 22.249,18.913 C22.249,18.913 28.498,18.913 28.498,18.913 C28.498,18.913 28.498,35.624 28.498,35.624 C28.498,35.624 3.340,35.624 3.340,35.624 C3.340,35.624 3.340,35.623 3.340,35.623 Z"/></g></svg>