<?xml version="1.0" encoding="UTF-8" standalone="no"?>
<svg width="198px" height="196px" viewBox="0 0 198 196" version="1.1" xmlns="http://www.w3.org/2000/svg" xmlns:xlink="http://www.w3.org/1999/xlink">
    <!-- Generator: Sketch 3.7.2 (28276) - http://www.bohemiancoding.com/sketch -->
    <title>stratagem</title>
    <desc>Created with Sketch.</desc>
    <defs></defs>
    <g id="Page-1" stroke="none" stroke-width="1" fill="none" fill-rule="evenodd">
        <g id="Artboard-1" transform="translate(-501.000000, -209.000000)" fill="#FFFFFF">
            <g id="stratagem" transform="translate(525.000000, 230.000000)">
                <g id="logo">
                    <g id="Layer_1">
                        <g id="Group">
                            <path d="M71.742,59.8645722 C72.35775,59.3480977 73.11375,58.9418144 74.0085,58.6509695 C74.9025,58.3623734 75.95325,58.2147022 77.1585,58.2147022 C78.495,58.2147022 79.656,58.3826126 80.6355,58.7161847 C81.61875,59.0497568 82.4745,59.4230577 83.208,59.829341 C83.94225,60.2386227 84.5775,60.6119236 85.11525,60.9454957 C85.656,61.276819 86.1405,61.4424807 86.5695,61.4424807 C87.0015,61.4424807 87.3735,61.3472814 87.68775,61.1538846 C87.99675,60.9604877 88.27275,60.6269156 88.512,60.1531683 L90.645,56.0521055 C89.00625,54.5041811 87.02475,53.2958256 84.69525,52.4375333 C82.36725,51.5747435 79.8225,51.1459721 77.06325,51.1459721 C74.6265,51.1459721 72.4605,51.5222715 70.5615,52.2748701 C68.667,53.0297175 67.06425,54.028185 65.76075,55.2770189 C64.4565,56.5258529 63.46425,57.9560901 62.78625,59.5714785 C62.10525,61.1838686 61.76625,62.8419843 61.76625,64.545076 C61.76625,66.6746902 62.07525,68.4677339 62.688,69.9204591 C63.30375,71.3754331 64.11525,72.5837886 65.13,73.5522721 C66.1425,74.5207556 67.29525,75.3078358 68.592,75.907516 C69.8835,76.5124434 71.19975,77.0289179 72.53625,77.4576892 C73.87275,77.8917078 75.189,78.2874967 76.48125,78.6540512 C77.77725,79.0206057 78.92775,79.4666178 79.9425,79.9935868 C80.955,80.5198061 81.7695,81.1719583 82.3845,81.9462953 C82.99725,82.7221315 83.30475,83.7220982 83.30475,84.9491938 C83.30475,87.1440232 82.626,88.8298741 81.2685,90.0029984 C79.908,91.1746235 77.99025,91.7645589 75.5115,91.7645589 C73.893,91.7645589 72.50925,91.541178 71.355,91.0996635 C70.2,90.6573994 69.20025,90.1694096 68.346,89.6326959 C67.49625,89.0952325 66.75825,88.6042444 66.13275,88.1627299 C65.50725,87.7204658 64.92375,87.5008329 64.38675,87.5008329 C63.97725,87.5008329 63.603,87.6012793 63.2715,87.8066698 C62.93475,88.0113106 62.6505,88.2646755 62.412,88.5667644 L59.88975,92.730044 C60.7965,93.6558002 61.82625,94.4961021 62.97975,95.2501999 C64.1325,96.0035481 65.3715,96.6497035 66.6975,97.1871668 C68.02425,97.7238806 69.40875,98.1399087 70.85325,98.4315032 C72.29775,98.7223481 73.76475,98.8647721 75.25425,98.8647721 C77.8395,98.8647721 80.136,98.4719816 82.14,97.689399 C84.1455,96.9015692 85.8435,95.8281417 87.23325,94.4578725 C88.6245,93.0906017 89.6805,91.4879564 90.4035,89.6469383 C91.125,87.8066698 91.48875,85.8314732 91.48875,83.7220982 C91.48875,81.7836321 91.1805,80.1390092 90.56475,78.7822328 C89.95275,77.4269556 89.13825,76.2800673 88.12275,75.3423174 C87.11025,74.4068164 85.9575,73.6317297 84.66375,73.0193064 C83.37,72.4053838 82.0485,71.86867 80.70225,71.4046675 C79.356,70.9399154 78.03375,70.5066465 76.743,70.0973647 C75.44625,69.6888326 74.2935,69.2270789 73.281,68.7106043 C72.26625,68.1941298 71.4525,67.5689632 70.83975,66.8366038 C70.22625,66.1019956 69.91725,65.1889825 69.91725,64.0908182 C69.91725,63.232526 70.07025,62.4401986 70.3695,61.717584 C70.67175,60.9979678 71.12925,60.3810468 71.742,59.8645722 L71.742,59.8645722 Z" id="Shape"></path>
                            <path d="M149.87775,75.2276286 L149.99325,75.1121902 L149.87775,74.9967517 C149.817,33.791228 116.226,0.284098481 74.943,0.284098481 C74.8275,0.284098481 74.71425,0.291594483 74.59875,0.291594483 L73.983,0.308835288 C33.10425,0.825309835 0.0015,34.1697761 0.0015,75.1046942 C0.0015,116.361191 33.6195,149.926039 74.943,149.926039 C116.073,149.926039 149.56125,116.664029 149.868,75.6676439 L149.985,75.5492071 L149.8725,75.4345183 C149.8725,75.365555 149.87775,75.298091 149.87775,75.2276286 L149.87775,75.2276286 Z M115.7355,15.4635028 C122.9865,20.4251066 129.2865,26.6730244 134.31375,33.8691864 L115.7355,33.8691864 L115.7355,15.4635028 L115.7355,15.4635028 Z M115.7355,36.4373168 L136.02525,36.4373168 C140.28075,43.1147555 143.46675,50.5290512 145.3455,58.4448294 L139.3215,64.4573727 L115.73625,40.9071828 L115.73625,36.4373168 L115.7355,36.4373168 Z M146.55675,75.313083 L139.356,82.3915578 L132.1755,75.2253798 L139.32075,68.0891858 L146.55675,75.313083 L146.55675,75.313083 Z M115.7355,44.5389959 L137.502,66.2736541 L130.3575,73.4090985 L115.7355,58.8083855 L115.7355,44.5389959 L115.7355,44.5389959 Z M115.7355,62.4409482 L128.538,75.2253798 L115.7355,88.0075626 L115.7355,62.4409482 L115.7355,62.4409482 Z M115.7355,91.6393757 L130.3575,77.0401619 L137.52225,84.1920975 L115.7355,105.59993 L115.7355,91.6393757 L115.7355,91.6393757 Z M88.13175,4.07632596 L83.48925,8.71410248 L77.69175,2.92269123 C81.24375,3.05537047 84.73125,3.44891058 88.13175,4.07632596 L88.13175,4.07632596 Z M74.526,21.2953925 L87.117,33.8691864 L61.93425,33.8691864 L74.526,21.2953925 L74.526,21.2953925 Z M58.29675,33.8691864 L44.178,33.8691864 L65.58975,12.3758995 L72.7065,19.4791111 L58.29675,33.8691864 L58.29675,33.8691864 Z M76.34475,19.4791111 L83.4885,12.3459155 L105.0495,33.8691864 L90.7545,33.8691864 L76.34475,19.4791111 L76.34475,19.4791111 Z M74.5305,3.39943697 L81.67125,10.5296342 L74.52675,17.6635794 L67.407,10.5551206 L74.5305,3.39943697 L74.5305,3.39943697 Z M71.358,2.94218084 L65.5875,8.73883929 L61.0425,4.203758 C64.40625,3.54710821 67.84875,3.11533849 71.358,2.94218084 L71.358,2.94218084 Z M35.91825,14.3046209 C42.6255,9.99816764 50.08725,6.76739072 58.0605,4.85665978 L63.771,10.5603678 L40.55025,33.8691864 L35.91825,33.8691864 L35.91825,14.3046209 L35.91825,14.3046209 Z M35.91825,36.4373168 L37.99275,36.4373168 L35.91825,38.5197062 L35.91825,36.4373168 L35.91825,36.4373168 Z M35.91825,42.161264 L41.6205,36.4373168 L55.72425,36.4373168 L35.91825,56.21252 L35.91825,42.161264 L35.91825,42.161264 Z M35.91825,93.6610474 L55.39275,113.490971 L41.77125,113.490971 L35.91825,107.706307 L35.91825,93.6610474 L35.91825,93.6610474 Z M74.45025,129.228078 L61.51725,116.059102 L87.6405,116.059102 L74.45025,129.228078 L74.45025,129.228078 Z M91.27725,116.059102 L105.09225,116.059102 L82.91775,137.848481 L76.2495,131.060851 L91.27725,116.059102 L91.27725,116.059102 Z M72.6315,131.04361 L66.12225,137.542644 L44.37375,116.059102 L57.915,116.059102 L72.6315,131.04361 L72.6315,131.04361 Z M35.91825,111.321628 L38.1135,113.491721 L35.91825,113.491721 L35.91825,111.321628 L35.91825,111.321628 Z M3.94875,61.1111574 L8.6475,65.8943563 L2.65575,71.9121469 C2.817,68.2323594 3.255,64.627532 3.94875,61.1111574 L3.94875,61.1111574 Z M10.449,67.7301273 L17.3475,74.7538813 L9.99,82.096965 L3.0075,75.1991438 L10.449,67.7301273 L10.449,67.7301273 Z M2.6595,78.4711487 L8.17125,83.9147455 L3.80175,88.2789179 C3.207,85.0751266 2.814,81.8038713 2.6595,78.4711487 L2.6595,78.4711487 Z M33.34575,134.173941 C26.33625,129.240072 20.24175,123.105344 15.3675,116.059102 L33.34575,116.059102 L33.34575,134.173941 L33.34575,134.173941 Z M33.34575,113.490971 L13.67475,113.490971 C9.42525,106.753565 6.26475,99.271805 4.42725,91.2855644 L10.0005,85.7190332 L33.34575,108.780484 L33.34575,113.490971 L33.34575,113.490971 Z M33.34575,105.165912 L11.81925,83.9042511 L19.149,76.5874034 L33.34575,91.0419443 L33.34575,105.165912 L33.34575,105.165912 Z M33.34575,87.3749001 L20.9655,74.7711221 L33.34575,62.413213 L33.34575,87.3749001 L33.34575,87.3749001 Z M33.34575,58.7813999 L19.16625,72.9375999 L12.261,65.9093483 L33.34575,44.7451359 L33.34575,58.7813999 L33.34575,58.7813999 Z M33.34575,41.1028285 L10.46025,64.0758262 L4.61325,58.1210021 C6.5025,50.3259095 9.6585,43.0240538 13.8555,36.4373168 L33.34575,36.4373168 L33.34575,41.1028285 L33.34575,41.1028285 Z M33.34575,33.8691864 L15.5685,33.8691864 C20.4075,26.9413813 26.4315,20.9018523 33.34575,16.0354478 L33.34575,33.8691864 L33.34575,33.8691864 Z M35.91825,135.904767 L35.91825,116.059102 L40.716,116.059102 L64.3035,139.358176 L58.25625,145.396205 C50.20725,143.492221 42.681,140.247201 35.91825,135.904767 L35.91825,135.904767 Z M61.2465,146.04311 L66.13275,141.164712 L72.33525,147.291944 C68.55675,147.157016 64.854,146.734991 61.2465,146.04311 L61.2465,146.04311 Z M74.65425,145.96965 L67.9515,139.347681 L74.433,132.876383 L81.08475,139.649021 L74.65425,145.96965 L74.65425,145.96965 Z M76.96275,147.308436 L82.88625,141.483292 L87.5535,146.236507 C84.09975,146.845183 80.565,147.207239 76.96275,147.308436 L76.96275,147.308436 Z M113.16375,136.418244 C106.31025,140.690215 98.697,143.848281 90.56925,145.641325 L84.71775,139.682003 L108.7605,116.059102 L113.16375,116.059102 L113.16375,136.418244 L113.16375,136.418244 Z M113.16375,113.490971 L111.375,113.490971 L113.16375,111.732409 L113.16375,113.490971 L113.16375,113.490971 Z M113.16375,108.128332 L107.7075,113.490971 L93.84975,113.490971 L113.16375,94.2067564 L113.16375,108.128332 L113.16375,108.128332 Z M113.16375,90.575693 L90.21225,113.490971 L58.995,113.490971 L35.91825,89.9955024 L35.91825,59.844333 L59.36175,36.4373168 L89.6895,36.4373168 L113.16375,59.8720682 L113.16375,90.575693 L113.16375,90.575693 Z M113.16375,56.2402552 L93.3285,36.4373168 L107.62275,36.4373168 L113.1645,41.9708655 L113.1645,56.2402552 L113.16375,56.2402552 Z M113.16375,38.3390525 L111.2595,36.4373168 L113.16375,36.4373168 L113.16375,38.3390525 L113.16375,38.3390525 Z M113.16375,33.8691864 L108.687,33.8691864 L85.30875,10.5296342 L91.14675,4.70074294 C99.0555,6.51402585 106.4715,9.61961954 113.163,13.7903951 L113.163,33.8691864 L113.16375,33.8691864 Z M115.7355,134.745886 L115.7355,116.059102 L134.51175,116.059102 C129.453,123.375949 123.08175,129.719066 115.7355,134.745886 L115.7355,134.745886 Z M136.17075,113.548691 L136.17075,113.491721 L115.73625,113.491721 L115.73625,109.204757 L139.3425,86.0091285 L145.30125,91.9587054 C143.43675,99.71257 140.319,106.985191 136.17075,113.548691 L136.17075,113.548691 Z M145.95375,88.9805437 L141.1755,84.2070896 L147.2265,78.2597615 C147.069,81.9095649 146.637,85.4889059 145.95375,88.9805437 L145.95375,88.9805437 Z M141.141,66.2736541 L145.99125,61.4319863 C146.67675,64.9910881 147.09975,68.6408915 147.24075,72.3611574 L141.141,66.2736541 L141.141,66.2736541 Z" id="Shape"></path>
                        </g>
                    </g>
                </g>
            </g>
        </g>
    </g>
</svg>