<?xml version="1.0" encoding="utf-8"?>
<!-- Generator: Adobe Illustrator 18.0.0, SVG Export Plug-In . SVG Version: 6.00 Build 0)  -->
<!DOCTYPE svg PUBLIC "-//W3C//DTD SVG 1.1//EN" "http://www.w3.org/Graphics/SVG/1.1/DTD/svg11.dtd">
<svg version="1.1" id="Layer_1" xmlns:ev="http://www.w3.org/2001/xml-events"
	 xmlns="http://www.w3.org/2000/svg" xmlns:xlink="http://www.w3.org/1999/xlink" x="0px" y="0px" width="200px" height="203px"
	 viewBox="0 0 200 203" enable-background="new 0 0 200 203" xml:space="preserve">
<g transform="scale(NaN)">
	<path opacity="0.102" enable-background="new    " d="M198.8,103.4c0,0.1,0,0.2,0,0.3l0.2,0.2l-0.2,0.2
		c-0.4,54.7-45.1,99.1-99.9,99.1C43.8,203-1,158.2-1,103.2C-1,48.6,43.1,4.1,97.6,3.4L98.1,3l0.4,0.4c0.2,0,0.3,0,0.5,0
		c55,0,99.8,44.7,99.9,99.7l0.2,0.2L198.8,103.4z M195.3,107.4l-8.1,7.9l6.4,6.4C194.5,117.1,195.1,112.3,195.3,107.4z M194.4,103.5
		l-9.6-9.6l-9.5,9.5l9.6,9.6L194.4,103.5z M153.3,182.8c9.8-6.7,18.3-15.2,25-24.9h-25V182.8z M153.3,154.4h27.2v0.1
		c5.5-8.8,9.7-18.5,12.2-28.8l-7.9-7.9l-31.5,30.9V154.4z M153.3,143.9l29-28.6l-9.6-9.5l-19.5,19.5V143.9z M153.3,120.4l17.1-17.1
		l-17.1-17.1V120.4z M153.3,81.5l19.5,19.5l9.5-9.5l-29-29V81.5z M115.7,198.1l-6.2-6.3l-7.9,7.8
		C106.4,199.4,111.1,198.9,115.7,198.1z M98.3,175.4l17.6-17.6H81L98.3,175.4z M76.2,157.8H58.2l29,28.7l8.7-8.7L76.2,157.8z
		 M100.7,177.9l8.9,9.1l29.6-29.1h-18.4L100.7,177.9z M107.1,189.3l-8.9-9l-8.6,8.6l8.9,8.8L107.1,189.3z M95.4,199.5l-8.3-8.2
		l-6.5,6.5C85.5,198.8,90.4,199.3,95.4,199.5z M46.9,184.3c9,5.8,19.1,10.1,29.8,12.7l8.1-8.1l-31.5-31.1h-6.4V184.3z M46.9,154.4
		h2.9l-2.9-2.9V154.4z M46.9,146.7l7.8,7.7h18.2l-26-26.5V146.7z M46.9,78l26.4-26.4H54.5l-7.6,7.6V78z M98.4,31.4L81.6,48.2h33.6
		L98.4,31.4z M120,48.2h19.1l-28.7-28.7l-9.5,9.5L120,48.2z M95.9,29l-9.5-9.5L57.9,48.2h18.8L95.9,29z M46.9,54.4l2.8-2.8h-2.8
		V54.4z M4.1,120.8l5.8-5.8l-7.3-7.3C2.8,112.1,3.3,116.5,4.1,120.8z M12.3,112.5l9.8-9.8l-9.2-9.4l-9.9,10L12.3,112.5z M2.5,98.9
		l8-8l-6.3-6.4C3.3,89.2,2.8,94,2.5,98.9z M43.5,24.4C34.2,30.9,26.2,39,19.8,48.2h23.7V24.4z M43.5,51.6h-26
		c-5.6,8.8-9.8,18.5-12.3,28.9l7.8,7.9l30.5-30.6V51.6z M43.5,62.7L15.3,90.9l9.2,9.4l18.9-18.9V62.7z M43.5,86.3L27,102.8
		l16.5,16.8V86.3z M43.5,124.5l-18.9-19.3l-9.8,9.8l28.7,28.4V124.5z M43.5,148.1l-31.1-30.8l-7.4,7.4c2.5,10.7,6.7,20.6,12.3,29.6
		h26.2V148.1z M43.5,157.8h-24c6.5,9.4,14.6,17.6,24,24.2V157.8z M46.9,22.1v26.1h6.2l31-31.1l-7.6-7.6C65.8,12,55.8,16.3,46.9,22.1
		z M80.4,8.6l6.1,6.1l7.7-7.7C89.5,7.2,84.9,7.7,80.4,8.6z M98.4,7.5l-9.5,9.5l9.5,9.5l9.5-9.5L98.4,7.5z M102.6,6.9l7.7,7.7
		l6.2-6.2C112,7.6,107.3,7.1,102.6,6.9z M149.9,21.4c-8.9-5.6-18.8-9.7-29.4-12.1l-7.8,7.8l31.2,31.1h6V21.4z M149.9,51.6h-2.5
		l2.5,2.5V51.6z M149.9,59l-7.4-7.4h-19.1L149.9,78V59z M149.9,82.9l-31.3-31.3H78.1L46.9,82.8v40.2l30.8,31.3h41.6l30.6-30.6V82.9z
		 M149.9,128.7l-25.8,25.7h18.5l7.3-7.2V128.7z M149.9,152.1l-2.4,2.3h2.4V152.1z M149.9,157.8H144L112,189.4l7.8,8
		c10.8-2.4,21-6.6,30.1-12.3V157.8z M153.3,23.6v24.6h24.8C171.4,38.6,163,30.3,153.3,23.6z M180.4,51.6h-27.1v6L184.8,89l8-8
		C190.3,70.4,186,60.5,180.4,51.6z M193.7,85l-6.5,6.5l8.1,8.1C195.1,94.6,194.6,89.7,193.7,85z M108.5,133.3
		c-2.7,1-5.7,1.6-9.2,1.6c-2,0-3.9-0.2-5.9-0.6c-1.9-0.4-3.8-0.9-5.5-1.7c-1.8-0.7-3.4-1.6-5-2.6c-1.5-1-2.9-2.1-4.1-3.4l3.4-5.6
		c0.3-0.4,0.7-0.7,1.1-1c0.4-0.3,0.9-0.4,1.5-0.4c0.7,0,1.5,0.3,2.3,0.9c0.8,0.6,1.8,1.2,3,2c1.1,0.7,2.5,1.4,4,2
		c1.5,0.6,3.4,0.9,5.5,0.9c3.3,0,5.9-0.8,7.7-2.3c1.8-1.6,2.7-3.8,2.7-6.7c0-1.6-0.4-3-1.2-4c-0.8-1-1.9-1.9-3.3-2.6
		c-1.4-0.7-2.9-1.3-4.6-1.8c-1.7-0.5-3.5-1-5.3-1.6c-1.8-0.6-3.5-1.3-5.3-2.1c-1.7-0.8-3.3-1.8-4.6-3.1c-1.4-1.3-2.4-2.9-3.3-4.8
		c-0.8-1.9-1.2-4.3-1.2-7.2c0-2.3,0.5-4.5,1.4-6.6c0.9-2.2,2.2-4.1,4-5.7c1.7-1.7,3.9-3,6.4-4c2.5-1,5.4-1.5,8.7-1.5
		c3.7,0,7.1,0.6,10.2,1.7c3.1,1.1,5.7,2.8,7.9,4.8l-2.8,5.5c-0.3,0.6-0.7,1.1-1.1,1.3c-0.4,0.3-0.9,0.4-1.5,0.4
		c-0.6,0-1.2-0.2-1.9-0.7c-0.7-0.4-1.6-0.9-2.5-1.5c-1-0.5-2.1-1-3.4-1.5c-1.3-0.4-2.9-0.7-4.6-0.7c-1.6,0-3,0.2-4.2,0.6
		c-1.2,0.4-2.2,0.9-3,1.6c-0.8,0.7-1.4,1.5-1.8,2.5c-0.4,1-0.6,2-0.6,3.2c0,1.5,0.4,2.7,1.2,3.7c0.8,1,1.9,1.8,3.3,2.5
		c1.3,0.7,2.9,1.3,4.6,1.8c1.7,0.5,3.5,1.1,5.3,1.7c1.8,0.6,3.6,1.3,5.3,2.2c1.7,0.8,3.3,1.9,4.6,3.1c1.4,1.3,2.4,2.8,3.3,4.6
		c0.8,1.8,1.2,4,1.2,6.6c0,2.8-0.5,5.4-1.4,7.9c-1,2.5-2.4,4.6-4.2,6.4C113.5,130.8,111.2,132.3,108.5,133.3z"/>
</g>
<g transform="scale(NaN)">
	<path fill="#FFFFFF" d="M199.8,100.4c0,0.1,0,0.2,0,0.3l0.2,0.2l-0.2,0.2c-0.4,54.7-45.1,99.1-99.9,99.1C44.8,200,0,155.2,0,100.2
		C0,45.6,44.1,1.1,98.6,0.4L99.1,0l0.4,0.4c0.2,0,0.3,0,0.5,0c55,0,99.8,44.7,99.9,99.7l0.2,0.2L199.8,100.4z M196.3,104.4l-8.1,7.9
		l6.4,6.4C195.5,114,196.1,109.3,196.3,104.4z M195.4,100.5l-9.6-9.6l-9.5,9.5l9.6,9.6L195.4,100.5z M154.3,179.8
		c9.8-6.7,18.3-15.2,25-24.9h-25V179.8z M154.3,151.4h27.2v0.1c5.5-8.8,9.7-18.5,12.2-28.8l-7.9-7.9l-31.5,30.9V151.4z M154.3,140.9
		l29-28.6l-9.6-9.5l-19.5,19.5V140.9z M154.3,117.4l17.1-17.1l-17.1-17.1V117.4z M154.3,78.5l19.5,19.5l9.5-9.5l-29-29V78.5z
		 M116.7,195.1l-6.2-6.3l-7.9,7.8C107.4,196.4,112.1,195.9,116.7,195.1z M99.3,172.4l17.6-17.6H82L99.3,172.4z M77.2,154.8H59.2
		l29,28.7l8.7-8.7L77.2,154.8z M101.7,174.8l8.9,9.1l29.6-29.1h-18.4L101.7,174.8z M108.1,186.3l-8.9-9l-8.6,8.6l8.9,8.8
		L108.1,186.3z M96.4,196.5l-8.3-8.2l-6.5,6.5C86.5,195.8,91.4,196.3,96.4,196.5z M47.9,181.3c9,5.8,19.1,10.1,29.8,12.7l8.1-8.1
		l-31.5-31.1h-6.4V181.3z M47.9,151.4h2.9l-2.9-2.9V151.4z M47.9,143.7l7.8,7.7h18.2l-26-26.5V143.7z M47.9,75l26.4-26.4H55.5
		l-7.6,7.6V75z M99.4,28.4L82.6,45.2h33.6L99.4,28.4z M121,45.2h19.1l-28.7-28.7l-9.5,9.5L121,45.2z M96.9,26l-9.5-9.5L58.9,45.2
		h18.8L96.9,26z M47.9,51.4l2.8-2.8h-2.8V51.4z M5.1,117.8l5.8-5.8l-7.3-7.3C3.8,109.1,4.3,113.5,5.1,117.8z M13.3,109.5l9.8-9.8
		l-9.2-9.4l-9.9,10L13.3,109.5z M3.5,95.9l8-8l-6.3-6.4C4.3,86.2,3.8,91,3.5,95.9z M44.5,21.4c-9.2,6.5-17.3,14.5-23.7,23.8h23.7
		V21.4z M44.5,48.6h-26c-5.6,8.8-9.8,18.5-12.3,28.9l7.8,7.9l30.5-30.6V48.6z M44.5,59.7L16.3,87.9l9.2,9.4l18.9-18.9V59.7z
		 M44.5,83.3L28,99.7l16.5,16.8V83.3z M44.5,121.5l-18.9-19.3l-9.8,9.8l28.7,28.4V121.5z M44.5,145.1l-31.1-30.8l-7.4,7.4
		c2.5,10.7,6.7,20.6,12.3,29.6h26.2V145.1z M44.5,154.8h-24c6.5,9.4,14.6,17.6,24,24.2V154.8z M47.9,19.1v26.1h6.2l31-31.1l-7.6-7.6
		C66.8,9,56.8,13.3,47.9,19.1z M81.4,5.6l6.1,6.1l7.7-7.7C90.5,4.2,85.9,4.7,81.4,5.6z M99.4,4.5l-9.5,9.5l9.5,9.5l9.5-9.5L99.4,4.5
		z M103.6,3.9l7.7,7.7l6.2-6.2C113,4.6,108.3,4.1,103.6,3.9z M150.9,18.4c-8.9-5.6-18.8-9.7-29.4-12.1l-7.8,7.8l31.2,31.1h6V18.4z
		 M150.9,48.6h-2.5l2.5,2.5V48.6z M150.9,56l-7.4-7.4h-19.1L150.9,75V56z M150.9,79.9l-31.3-31.3H79.1L47.9,79.8v40.2l30.8,31.3
		h41.6l30.6-30.6V79.9z M150.9,125.7l-25.8,25.7h18.5l7.3-7.2V125.7z M150.9,149.1l-2.4,2.3h2.4V149.1z M150.9,154.8H145L113,186.3
		l7.8,8c10.8-2.4,21-6.6,30.1-12.3V154.8z M154.3,20.6v24.6h24.8C172.4,35.6,164,27.2,154.3,20.6z M181.4,48.6h-27.1v6L185.8,86l8-8
		C191.3,67.4,187,57.5,181.4,48.6z M194.7,82l-6.5,6.5l8.1,8.1C196.1,91.6,195.6,86.7,194.7,82z M109.5,130.3
		c-2.7,1-5.7,1.6-9.2,1.6c-2,0-3.9-0.2-5.9-0.6c-1.9-0.4-3.8-0.9-5.5-1.7c-1.8-0.7-3.4-1.6-5-2.6c-1.5-1-2.9-2.1-4.1-3.4l3.4-5.6
		c0.3-0.4,0.7-0.7,1.1-1c0.4-0.3,0.9-0.4,1.5-0.4c0.7,0,1.5,0.3,2.3,0.9c0.8,0.6,1.8,1.2,3,2c1.1,0.7,2.5,1.4,4,2
		c1.5,0.6,3.4,0.9,5.5,0.9c3.3,0,5.9-0.8,7.7-2.3c1.8-1.6,2.7-3.8,2.7-6.7c0-1.6-0.4-3-1.2-4c-0.8-1-1.9-1.9-3.3-2.6
		c-1.4-0.7-2.9-1.3-4.6-1.8c-1.7-0.5-3.5-1-5.3-1.6c-1.8-0.6-3.5-1.3-5.3-2.1c-1.7-0.8-3.3-1.9-4.6-3.1c-1.4-1.3-2.4-2.9-3.3-4.8
		c-0.8-1.9-1.2-4.3-1.2-7.2c0-2.3,0.5-4.5,1.4-6.6c0.9-2.2,2.2-4.1,4-5.7c1.7-1.7,3.9-3,6.4-4c2.5-1,5.4-1.5,8.7-1.5
		c3.7,0,7.1,0.6,10.2,1.7c3.1,1.1,5.7,2.8,7.9,4.8l-2.8,5.5c-0.3,0.6-0.7,1.1-1.1,1.3c-0.4,0.3-0.9,0.4-1.5,0.4
		c-0.6,0-1.2-0.2-1.9-0.7c-0.7-0.4-1.6-0.9-2.5-1.5c-1-0.5-2.1-1-3.4-1.5c-1.3-0.4-2.9-0.7-4.6-0.7c-1.6,0-3,0.2-4.2,0.6
		c-1.2,0.4-2.2,0.9-3,1.6c-0.8,0.7-1.4,1.5-1.8,2.5c-0.4,1-0.6,2-0.6,3.2c0,1.5,0.4,2.7,1.2,3.7c0.8,1,1.9,1.8,3.3,2.5
		c1.3,0.7,2.9,1.3,4.6,1.8c1.7,0.5,3.5,1.1,5.3,1.7c1.8,0.6,3.6,1.3,5.3,2.2c1.7,0.8,3.3,1.9,4.6,3.1c1.4,1.3,2.4,2.8,3.3,4.6
		c0.8,1.8,1.2,4,1.2,6.6c0,2.8-0.5,5.4-1.4,7.9c-1,2.5-2.4,4.6-4.2,6.4C114.5,127.8,112.2,129.3,109.5,130.3z"/>
</g>
</svg>
