<?xml version="1.0" encoding="UTF-8" standalone="no"?>
<svg width="70px" height="70px" viewBox="0 0 70 70" version="1.1" xmlns="http://www.w3.org/2000/svg" xmlns:xlink="http://www.w3.org/1999/xlink">
    <!-- Generator: Sketch 3.8.1 (29687) - http://www.bohemiancoding.com/sketch -->
    <title>logo</title>
    <desc>Created with Sketch.</desc>
    <defs></defs>
    <g id="Page-1" stroke="none" stroke-width="1" fill="none" fill-rule="evenodd">
        <g id="Artboard-1" transform="translate(-454.000000, -1063.000000)" fill="#6A35D7">
            <g id="howTo" transform="translate(210.000000, 683.000000)">
                <g id="logo" transform="translate(244.000000, 380.000000)">
                    <g id="Layer_1">
                        <g id="Group">
                            <path d="M33.3083847,28.1132991 C33.5942583,27.873516 33.9452456,27.6848913 34.3606502,27.549861 C34.7757066,27.4158748 35.2635372,27.3473157 35.8230973,27.3473157 C36.4435927,27.3473157 36.9826089,27.4252713 37.4373603,27.5801384 C37.8938528,27.7350056 38.2911509,27.9083176 38.6316921,28.0969423 C38.9725816,28.2869591 39.2675084,28.4602711 39.517169,28.6151382 C39.7682225,28.7689614 39.9931608,28.8458729 40.1923321,28.8458729 C40.3928963,28.8458729 40.5656043,28.8016749 40.7115009,28.7118867 C40.8549599,28.6220986 40.9830982,28.4672314 41.0941745,28.2472852 L42.0844601,26.3432893 C41.3236394,25.624636 40.4036906,25.0636341 39.3221761,24.6651557 C38.241358,24.2645892 37.0599097,24.065524 35.7788757,24.065524 C34.6475684,24.065524 33.6419619,24.2402281 32.7603152,24.5896362 C31.8807577,24.9400884 31.1366507,25.4036458 30.5314762,25.9834406 C29.9259534,26.5632354 29.4652826,27.2272501 29.1505083,27.9772248 C28.8343411,28.7258074 28.676954,29.4956189 28.676954,30.2863115 C28.676954,31.2750252 28.8204131,32.1074796 29.1048938,32.7819348 C29.3907674,33.457434 29.7675217,34.018436 30.2386386,34.4680727 C30.7087108,34.9177095 31.2438968,35.2831264 31.8459376,35.5615393 C32.4455409,35.8423883 33.0566348,36.0821713 33.6771303,36.2812365 C34.2976257,36.4827379 34.9087197,36.6664903 35.5086712,36.8366702 C36.1103637,37.0068501 36.6445051,37.2139196 37.115622,37.4585749 C37.5856943,37.7028822 37.9638413,38.0056562 38.2493667,38.3651568 C38.5338475,38.7253535 38.6766102,39.1896069 38.6766102,39.7593093 C38.6766102,40.7783004 38.3614876,41.5609885 37.7312426,42.1056337 C37.0996047,42.6495829 36.209253,42.9234715 35.0584464,42.9234715 C34.3070271,42.9234715 33.664595,42.8197627 33.1287126,42.6147812 C32.592482,42.4094518 32.1283291,42.1828933 31.7317274,41.9337138 C31.3372149,41.6841862 30.9945844,41.4562357 30.7041842,41.2512542 C30.413784,41.0459247 30.1428831,40.943956 29.8935707,40.943956 C29.7034526,40.943956 29.5296999,40.9905902 29.3757948,41.0859466 C29.2194522,41.180955 29.0874838,41.2985844 28.9767556,41.4388349 L27.8057533,43.3717162 C28.2267292,43.8015161 28.7048101,44.1916421 29.2403443,44.5417463 C29.7755303,44.8915025 30.3507595,45.1914923 30.9663801,45.4410199 C31.5823489,45.6901994 32.2251292,45.8833483 32.8957657,46.0187266 C33.5664021,46.1537568 34.2474846,46.2198799 34.9390132,46.2198799 C36.1392644,46.2198799 37.205458,46.0375194 38.1358529,45.6741906 C39.0669443,45.3084257 39.8552729,44.8100667 40.5004906,44.1738933 C41.1464048,43.539112 41.6366727,42.7950536 41.9723392,41.9403261 C42.3073092,41.0859466 42.476187,40.1689242 42.476187,39.1896069 C42.476187,38.2896374 42.3330761,37.5260901 42.0472025,36.896181 C41.76307,36.2669679 41.3849229,35.7345033 40.9134578,35.2991352 C40.4433855,34.8648111 39.9081995,34.5049624 39.3075516,34.2206333 C38.7069037,33.9356081 38.0933723,33.6864286 37.4683503,33.4710067 C36.8433283,33.2552367 36.2294487,33.0540834 35.6301936,32.8640666 C35.0281528,32.6743978 34.4929668,32.4600199 34.0228945,32.2202369 C33.5517777,31.9804538 33.1739788,31.6902084 32.889498,31.3501966 C32.6046691,31.0091409 32.46121,30.5852573 32.46121,30.0754137 C32.46121,29.6769353 32.5322431,29.3090823 32.6711756,28.9735948 C32.8115009,28.6394994 33.0239039,28.3530821 33.3083847,28.1132991 L33.3083847,28.1132991 Z" id="Shape"></path>
                            <path d="M69.5843852,35.2458887 L69.6380082,35.1922942 L69.5843852,35.1386997 C69.5561808,16.0082556 53.9609234,0.451936673 34.7945095,0.451936673 C34.7408864,0.451936673 34.688308,0.455416834 34.6346849,0.455416834 L34.3488113,0.463421204 C15.3700781,0.703204286 0.0015,16.1840037 0.0015,35.1888141 C0.0015,54.3429233 15.6092927,69.9260394 34.7945095,69.9260394 C53.8898903,69.9260394 69.4374441,54.4835218 69.5798586,35.4501741 L69.634178,35.3951876 L69.5819478,35.3419411 C69.5819478,35.3099236 69.5843852,35.2786022 69.5843852,35.2458887 L69.5843852,35.2458887 Z M53.7331995,7.49926237 C57.0996135,9.80278083 60.0245077,12.7034949 62.3585037,16.0444493 L53.7331995,16.0444493 L53.7331995,7.49926237 L53.7331995,7.49926237 Z M53.7331995,17.2367524 L63.1530999,17.2367524 C65.1287963,20.3368797 66.6079571,23.7791067 67.4802023,27.4541566 L64.6834464,30.2455936 L53.7335477,19.3119723 L53.7335477,17.2367524 L53.7331995,17.2367524 Z M68.0425481,35.2855625 L64.6994636,38.5718784 L61.3657806,35.2448446 L64.6830982,31.9317315 L68.0425481,35.2855625 L68.0425481,35.2855625 Z M53.7331995,20.9981102 L63.8387091,31.0888366 L60.5217397,34.4016017 L53.7331995,27.6229444 L53.7331995,20.9981102 L53.7331995,20.9981102 Z M53.7331995,29.3094303 L59.6770024,35.2448446 L53.7331995,41.1792149 L53.7331995,29.3094303 L53.7331995,29.3094303 Z M53.7331995,42.8653528 L60.5217397,36.0873916 L63.8481105,39.407813 L53.7331995,49.3468044 L53.7331995,42.8653528 L53.7331995,42.8653528 Z M40.9176363,2.21255004 L38.7622678,4.36572555 L36.0706687,1.67695329 C37.7197519,1.73855213 39.3388898,1.92126058 40.9176363,2.21255004 L40.9176363,2.21255004 Z M34.6009094,10.2068275 L40.4465194,16.0444493 L28.7549511,16.0444493 L34.6009094,10.2068275 L34.6009094,10.2068275 Z M27.0661729,16.0444493 L20.5112761,16.0444493 L30.4520862,6.06578412 L33.756172,9.36358453 L27.0661729,16.0444493 L27.0661729,16.0444493 Z M35.4452985,9.36358453 L38.7619196,6.05186348 L48.7720218,16.0444493 L42.1352976,16.0444493 L35.4452985,9.36358453 L35.4452985,9.36358453 Z M34.6029986,1.89829152 L37.9182269,5.20862051 L34.6012576,8.52068957 L31.2957789,5.22045305 L34.6029986,1.89829152 L34.6029986,1.89829152 Z M33.1301054,1.68600171 L30.4510416,4.37721008 L28.3409393,2.27171278 C29.9026239,1.96685069 31.5008697,1.76639342 33.1301054,1.68600171 L33.1301054,1.68600171 Z M16.6765308,6.9612295 C19.7904986,4.9618771 23.2547572,3.46192778 26.9564894,2.57483478 L29.6076971,5.22288916 L18.8270245,16.0444493 L16.6765308,16.0444493 L16.6765308,6.9612295 L16.6765308,6.9612295 Z M16.6765308,17.2367524 L17.6396567,17.2367524 L16.6765308,18.2035411 L16.6765308,17.2367524 L16.6765308,17.2367524 Z M16.6765308,19.8942032 L19.3239083,17.2367524 L25.8718411,17.2367524 L16.6765308,26.4177647 L16.6765308,19.8942032 L16.6765308,19.8942032 Z M16.6765308,43.8039522 L25.717936,53.0103697 L19.3938968,53.0103697 L16.6765308,50.3247296 L16.6765308,43.8039522 L16.6765308,43.8039522 Z M34.565741,60.3166193 L28.561351,54.2026728 L40.6895641,54.2026728 L34.565741,60.3166193 L34.565741,60.3166193 Z M42.3779942,54.2026728 L48.7918693,54.2026728 L38.4969381,64.3188043 L35.4010768,61.1675187 L42.3779942,54.2026728 L42.3779942,54.2026728 Z M33.7213519,61.1595143 L30.6993094,64.1768137 L20.6021567,54.2026728 L26.8889383,54.2026728 L33.7213519,61.1595143 L33.7213519,61.1595143 Z M16.6765308,52.0032111 L17.6957172,53.0107177 L16.6765308,53.0107177 L16.6765308,52.0032111 L16.6765308,52.0032111 Z M1.83408551,28.6920498 L4.01556911,30.9127404 L1.23378579,33.7066136 C1.30864915,31.9982026 1.51199894,30.3245932 1.83408551,28.6920498 L1.83408551,28.6920498 Z M4.85194957,31.7650318 L8.05470874,35.0259425 L4.63885014,38.4351081 L1.39709238,35.2326641 L4.85194957,31.7650318 L4.85194957,31.7650318 Z M1.2355268,36.7517543 L3.79446103,39.2790471 L1.76583797,41.3051967 C1.48971403,39.817776 1.30725635,38.2990338 1.2355268,36.7517543 L1.2355268,36.7517543 Z M15.482199,62.6128295 C12.227906,60.3221876 9.39841907,57.474024 7.13545627,54.2026728 L15.482199,54.2026728 L15.482199,62.6128295 L15.482199,62.6128295 Z M15.482199,53.0103697 L6.34956505,53.0103697 C4.37665426,49.8824011 2.90933233,46.4088526 2.05623819,42.7010892 L4.64372496,40.1167218 L15.482199,50.8234366 L15.482199,53.0103697 L15.482199,53.0103697 Z M15.482199,49.1453031 L5.48811407,39.2741749 L8.8910892,35.8771899 L15.482199,42.587984 L15.482199,49.1453031 L15.482199,49.1453031 Z M15.482199,40.8854893 L9.7344337,35.0339469 L15.482199,29.2965537 L15.482199,40.8854893 L15.482199,40.8854893 Z M15.482199,27.6104158 L8.89909784,34.1826996 L5.69320486,30.9197008 L15.482199,21.0938146 L15.482199,27.6104158 L15.482199,27.6104158 Z M15.482199,19.4028045 L4.8571726,30.0684534 L2.14259221,27.3038136 C3.01971227,23.6847944 4.48494499,20.2947697 6.43348166,17.2367524 L15.482199,17.2367524 L15.482199,19.4028045 L15.482199,19.4028045 Z M15.482199,16.0444493 L7.22877432,16.0444493 C9.47537164,12.8280846 12.2721276,10.0241191 15.482199,7.76479864 L15.482199,16.0444493 L15.482199,16.0444493 Z M16.6765308,63.4163986 L16.6765308,54.2026728 L18.9039771,54.2026728 L29.8549203,65.0197087 L27.04737,67.8229783 C23.3104695,66.9390174 19.8162655,65.4324558 16.6765308,63.4163986 L16.6765308,63.4163986 Z M28.4356502,68.1233161 L30.7041842,65.8584275 L33.5838122,68.7031109 C31.8295721,68.640468 30.1105003,68.444535 28.4356502,68.1233161 L28.4356502,68.1233161 Z M34.6604518,68.0892106 L31.5485733,65.0148365 L34.5577323,62.0104136 L37.6459332,65.1547389 L34.6604518,68.0892106 L34.6604518,68.0892106 Z M35.7322167,68.7107673 L38.4823136,66.0063343 L40.6491727,68.2131043 C39.045704,68.4956933 37.4046294,68.6637851 35.7322167,68.7107673 L35.7322167,68.7107673 Z M52.5392159,63.6547896 C49.3573489,65.6381333 45.8227535,67.104325 42.0492918,67.9367795 L39.3326222,65.1700516 L50.4949238,54.2026728 L52.5392159,54.2026728 L52.5392159,63.6547896 L52.5392159,63.6547896 Z M52.5392159,53.0103697 L51.7087549,53.0103697 L52.5392159,52.1939239 L52.5392159,53.0103697 L52.5392159,53.0103697 Z M52.5392159,50.5206626 L50.0060486,53.0103697 L43.572326,53.0103697 L52.5392159,44.0573079 L52.5392159,50.5206626 L52.5392159,50.5206626 Z M52.5392159,42.371518 L41.8835477,53.0103697 L27.3903487,53.0103697 L16.6765308,42.1021536 L16.6765308,28.1039026 L27.5606193,17.2367524 L41.6408512,17.2367524 L52.5392159,28.1167792 L52.5392159,42.371518 L52.5392159,42.371518 Z M52.5392159,26.4306413 L43.3303258,17.2367524 L49.9667018,17.2367524 L52.5395641,19.8058071 L52.5395641,26.4306413 L52.5392159,26.4306413 Z M52.5392159,18.1196692 L51.6551318,17.2367524 L52.5392159,17.2367524 L52.5392159,18.1196692 L52.5392159,18.1196692 Z M52.5392159,16.0444493 L50.4608,16.0444493 L39.6070051,5.20862051 L42.3174071,2.50244744 C45.9891939,3.34429835 49.4322122,4.78612898 52.5388677,6.72249047 L52.5388677,16.0444493 L52.5392159,16.0444493 Z M53.7331995,62.8783657 L53.7331995,54.2026728 L62.4504289,54.2026728 C60.1018085,57.5996578 57.1438351,60.5445699 53.7331995,62.8783657 L53.7331995,62.8783657 Z M63.220651,53.0371669 L63.220651,53.0107177 L53.7335477,53.0107177 L53.7335477,51.0204137 L64.693196,40.251404 L67.4596584,43.0136077 C66.594029,46.613486 65.1465546,49.9899381 63.220651,53.0371669 L63.220651,53.0371669 Z M67.7625939,41.6309398 L65.5442009,39.4147734 L68.3534922,36.6536137 C68.2803698,38.3481041 68.0798057,40.0098809 67.7625939,41.6309398 L67.7625939,41.6309398 Z M65.5281837,31.0888366 L67.780004,28.8410007 C68.0982604,30.4933811 68.2946461,32.1878714 68.360108,33.9150752 L65.5281837,31.0888366 L65.5281837,31.0888366 Z" id="Shape"></path>
                        </g>
                    </g>
                </g>
            </g>
        </g>
    </g>
</svg>