<?xml version="1.0" encoding="utf-8"?> <!-- Generated by Layerhero SVG Exporter: http://www.layerhero.com/photoshop-svg-exporter --><!DOCTYPE svg PUBLIC "-//W3C//DTD SVG 1.1//EN" "http://www.w3.org/Graphics/SVG/1.1/DTD/svg11.dtd"><svg version="1.1" baseProfile="full" xmlns="http://www.w3.org/2000/svg" xmlns:xlink="http://www.w3.org/1999/xlink" xmlns:ev="http://www.w3.org/2001/xml-events" width="82" height="53" viewBox="0 0 82 53"><g transform="scale(NaN)" ><path fill-rule="evenodd"  fill="rgb( 71, 42, 147 )" d="M52.772,16.898 C52.772,16.898 28.852,16.898 28.852,16.898 C28.852,16.898 28.852,12.907 28.852,12.907 C28.852,12.270 28.343,11.755 27.712,11.755 C27.082,11.755 26.573,12.270 26.573,12.907 C26.573,12.907 26.573,16.722 26.573,16.722 C27.110,16.722 27.634,16.785 28.142,16.898 C28.142,16.898 2.655,16.898 2.655,16.898 C1.189,16.898 -0.003,18.103 -0.003,19.584 C-0.003,19.584 -0.003,50.306 -0.003,50.306 C-0.003,51.788 1.189,52.993 2.655,52.993 C2.655,52.993 52.773,52.993 52.773,52.993 C54.238,52.993 55.431,51.788 55.431,50.306 C55.431,50.306 55.431,19.584 55.431,19.584 C55.430,18.103 54.237,16.898 52.772,16.898 ZM53.151,50.306 C53.151,50.518 52.981,50.690 52.772,50.690 C52.772,50.690 2.655,50.690 2.655,50.690 C2.445,50.690 2.275,50.518 2.275,50.306 C2.275,50.306 2.275,19.584 2.275,19.584 C2.275,19.373 2.445,19.201 2.655,19.201 C2.655,19.201 52.773,19.201 52.773,19.201 C52.982,19.201 53.152,19.373 53.152,19.584 C53.152,19.584 53.152,50.306 53.152,50.306 C53.152,50.306 53.151,50.306 53.151,50.306 ZM36.096,1.150 C36.096,0.521 36.605,0.006 37.235,0.006 C37.235,0.006 44.069,0.006 44.069,0.006 C44.699,0.006 45.209,0.521 45.209,1.150 C45.209,1.788 44.699,2.302 44.069,2.302 C44.069,2.302 37.235,2.302 37.235,2.302 C36.605,2.301 36.096,1.788 36.096,1.150 ZM26.574,6.001 C26.574,6.001 26.574,2.685 26.574,2.685 C26.574,1.211 27.765,0.006 29.231,0.006 C29.231,0.006 30.402,0.006 30.402,0.006 C31.032,0.006 31.541,0.521 31.541,1.150 C31.541,1.788 31.032,2.302 30.402,2.302 C30.402,2.302 29.231,2.302 29.231,2.302 C29.027,2.302 28.852,2.479 28.852,2.686 C28.852,2.686 28.852,6.002 28.852,6.002 C28.852,6.638 28.343,7.153 27.712,7.153 C27.083,7.152 26.574,6.637 26.574,6.001 ZM72.544,1.150 C72.544,1.788 72.035,2.302 71.405,2.302 C71.405,2.302 64.572,2.302 64.572,2.302 C63.942,2.302 63.432,1.788 63.432,1.150 C63.432,0.521 63.942,0.006 64.572,0.006 C64.572,0.006 71.406,0.006 71.406,0.006 C72.037,0.006 72.544,0.521 72.544,1.150 ZM82.006,12.969 C82.006,12.969 82.006,19.877 82.006,19.877 C82.006,20.513 81.497,21.028 80.867,21.028 C80.236,21.028 79.728,20.513 79.728,19.877 C79.728,19.877 79.728,12.969 79.728,12.969 C79.728,12.340 80.236,11.818 80.867,11.818 C81.499,11.818 82.006,12.340 82.006,12.969 ZM82.006,2.685 C82.006,2.685 82.006,6.061 82.006,6.061 C82.006,6.698 81.497,7.213 80.867,7.213 C80.236,7.213 79.728,6.698 79.728,6.061 C79.728,6.061 79.728,2.685 79.728,2.685 C79.728,2.478 79.560,2.301 79.347,2.301 C79.347,2.301 78.239,2.301 78.239,2.301 C77.609,2.301 77.099,1.787 77.099,1.149 C77.099,0.520 77.609,0.005 78.239,0.005 C78.239,0.005 79.347,0.005 79.347,0.005 C80.814,0.006 82.006,1.211 82.006,2.685 ZM82.006,26.783 C82.006,26.783 82.006,33.415 82.006,33.415 C82.006,34.888 80.814,36.093 79.349,36.101 C79.349,36.101 74.899,36.101 74.899,36.101 C74.268,36.101 73.759,35.579 73.759,34.943 C73.759,34.314 74.268,33.790 74.899,33.790 C74.899,33.790 79.349,33.790 79.349,33.790 C79.560,33.790 79.729,33.622 79.729,33.415 C79.729,33.415 79.729,26.783 79.729,26.783 C79.729,26.155 80.237,25.632 80.868,25.632 C81.499,25.632 82.006,26.155 82.006,26.783 ZM58.877,1.150 C58.877,1.788 58.366,2.302 57.738,2.302 C57.738,2.302 50.904,2.302 50.904,2.302 C50.273,2.302 49.764,1.788 49.764,1.150 C49.764,0.521 50.273,0.006 50.904,0.006 C50.904,0.006 57.738,0.006 57.738,0.006 C58.366,0.006 58.877,0.521 58.877,1.150 ZM69.203,34.943 C69.203,35.579 68.695,36.101 68.065,36.101 C68.065,36.101 61.231,36.101 61.231,36.101 C60.609,36.101 60.090,35.579 60.090,34.943 C60.090,34.314 60.609,33.790 61.231,33.790 C61.231,33.790 68.065,33.790 68.065,33.790 C68.695,33.790 69.203,34.314 69.203,34.943 Z"/></g></svg>